<svg xmlns="http://www.w3.org/2000/svg" width="54" height="54" viewBox="0 0 54 54">
    <defs>
        <radialGradient id="hwhk18or4c" cx="5.812%" cy="25.408%" r="77.541%" fx="5.812%" fy="25.408%" gradientTransform="matrix(1 0 0 .91822 0 .02)">
            <stop offset="0%" stop-color="#005131"/>
            <stop offset="100%" stop-color="#00B16D"/>
        </radialGradient>
        <radialGradient id="k6yrr59ibd" cx="36.431%" cy="17.858%" r="79.94%" fx="36.431%" fy="17.858%" gradientTransform="matrix(.97386 0 0 1 .01 0)">
            <stop offset="0%" stop-color="#FFF"/>
            <stop offset="40%" stop-color="#FEFEFE" stop-opacity=".99"/>
            <stop offset="54%" stop-color="#FAFAFA" stop-opacity=".98"/>
            <stop offset="65%" stop-color="#F3F3F3" stop-opacity=".94"/>
            <stop offset="73%" stop-color="#EAEAEA" stop-opacity=".9"/>
            <stop offset="80%" stop-color="#DDD" stop-opacity=".83"/>
            <stop offset="86%" stop-color="#CECECE" stop-opacity=".76"/>
            <stop offset="92%" stop-color="#BBB" stop-opacity=".67"/>
            <stop offset="97%" stop-color="#A6A6A6" stop-opacity=".57"/>
            <stop offset="100%" stop-color="#999" stop-opacity=".5"/>
        </radialGradient>
        <radialGradient id="d2sei04sxe" cx="8.009%" cy="2.804%" r="138.488%" fx="8.009%" fy="2.804%" gradientTransform="matrix(1 0 0 .76246 0 .007)">
            <stop offset="0%" stop-color="#FFF"/>
            <stop offset="40%" stop-color="#FEFEFE" stop-opacity=".99"/>
            <stop offset="54%" stop-color="#FAFAFA" stop-opacity=".98"/>
            <stop offset="65%" stop-color="#F3F3F3" stop-opacity=".94"/>
            <stop offset="73%" stop-color="#EAEAEA" stop-opacity=".9"/>
            <stop offset="80%" stop-color="#DDD" stop-opacity=".83"/>
            <stop offset="86%" stop-color="#CECECE" stop-opacity=".76"/>
            <stop offset="92%" stop-color="#BBB" stop-opacity=".67"/>
            <stop offset="97%" stop-color="#A6A6A6" stop-opacity=".57"/>
            <stop offset="100%" stop-color="#999" stop-opacity=".5"/>
        </radialGradient>
        <linearGradient id="zbund8agda" x1="50%" x2="50%" y1="18.096%" y2="89.588%">
            <stop offset="0%" stop-color="#00E28E"/>
            <stop offset="100%" stop-color="#00B16D"/>
        </linearGradient>
        <linearGradient id="bs9rp0ggub" x1="7.628%" x2="69.748%" y1="7.628%" y2="69.766%">
            <stop offset="0%" stop-color="#FFD605"/>
            <stop offset="100%" stop-color="#FFD605" stop-opacity="0"/>
        </linearGradient>
    </defs>
    <g fill="none" fill-rule="evenodd">
        <g fill-rule="nonzero">
            <g transform="translate(-115 -451) translate(115 451)">
                <rect width="53.88" height="53.88" fill="url(#zbund8agda)" rx="5.68"/>
                <rect width="53.88" height="53.88" x=".02" fill="url(#bs9rp0ggub)" rx="5.68"/>
                <path fill="url(#hwhk18or4c)" d="M47.63 25.73c-1.078-1.706-2.52-3.153-4.22-4.24-1.119-.643-2.1-1.5-2.89-2.52-.686-1.332-1.23-2.733-1.62-4.18-.67-1.85-1.78-3.87-3.71-4.64-1.084-.545-2.377-.469-3.39.2-2.362-1.401-5.206-1.739-7.83-.93.335 1.137-.158 2.356-1.19 2.94.887-.636 1.187-1.818.71-2.8-.286-.617-.866-1.047-1.54-1.14-.412-.045-.828-.045-1.24 0-.384.068-.776.068-1.16 0-.434-.151-.739-.542-.78-1 .059-.62.491-1.14 1.09-1.31.677-.171 1.392.053 1.85.58.149.281.46.436.774.385.313-.052.56-.298.61-.611.052-.314-.103-.625-.384-.774-.845-.929-2.145-1.294-3.35-.94-1.211.38-2.052 1.481-2.1 2.75.041 1.094.754 2.048 1.79 2.4.564.15 1.153.185 1.73.1.31-.025.62-.025.93 0 .14.02.267.095.35.21-.22.1-.45.2-.68.32-.251.123-.495.26-.73.41l-.14.07-.09.06c-2.64 1.866-4.327 4.8-4.61 8.02.48 0 3.8-.3 3.74 1l-2.44-.53c-.491-.067-.989-.067-1.48 0h-.1c-1.597.424-3.145 1.014-4.62 1.76C9.394 22.353 8.674 24.216 9.1 26c.035.167.081.33.14.49.036.133.083.264.14.39.222.489.508.946.85 1.36l15.18 25.31h21.85c3.19 0 6.65-1.48 6.65-7.35V31.88l-6.28-6.15z"/>
                <path fill="#FFF" d="M35.04 13.27c-.708-.983-1.58-1.836-2.58-2.52-2.459-1.728-5.58-2.22-8.45-1.33.335 1.137-.158 2.356-1.19 2.94.887-.636 1.187-1.818.71-2.8-.286-.617-.866-1.047-1.54-1.14-.412-.045-.828-.045-1.24 0-.384.068-.776.068-1.16 0-.434-.151-.739-.542-.78-1 .059-.62.491-1.14 1.09-1.31.677-.171 1.392.053 1.85.58.149.281.46.436.774.385.313-.052.56-.298.61-.611.052-.314-.103-.625-.384-.774-.845-.929-2.145-1.294-3.35-.94-1.211.38-2.052 1.481-2.1 2.75.041 1.094.754 2.048 1.79 2.4.564.15 1.153.185 1.73.1.31-.025.62-.025.93 0 .14.02.267.095.35.21-.22.1-.45.2-.68.32-.251.123-.495.26-.73.41l-.14.07-.09.06c-2.656 1.858-4.357 4.792-4.65 8.02.99.071 1.956.33 2.85.76-.965-.324-1.987-.44-3-.34h-.1c-1.597.424-3.145 1.014-4.62 1.76-1.516 1.033-2.236 2.896-1.81 4.68.035.167.081.33.14.49.036.133.083.264.14.39.7 1.58 3 4.65 10.35 4.68 4.8.075 9.464-1.6 13.12-4.71l.15-.15.17-.16c1.038-1.048 1.884-2.27 2.5-3.61-.362-1.085-.955-2.078-1.74-2.91-.88-.899-1.56-1.972-2-3.15.586 1.085 1.39 2.038 2.36 2.8.717.558 1.332 1.234 1.82 2 .134-.426.24-.86.32-1.3.461-2.445-.048-4.974-1.42-7.05zM13.71 25.94c-.73.1-.87-.53-1.46-.71-.59-.18-1.39 1.06-1.69.35-.75-1.79-.23-3.17 1.58-3.32 2.92-.24 2.27 3.56 1.57 3.68zm7.93 3c-1.552.408-3.202-.06-4.31-1.22 0 0 5.12 1.1 7.61-1.81-.45 1.546-1.721 2.714-3.3 3.03zm7.83-9.26c-.074.379-.37.676-.749.75-.379.075-.765-.087-.977-.41-.212-.322-.208-.741.01-1.06.22-.318.609-.472.986-.39.505.11.829.603.73 1.11zm.3-3.23l-4 1.3c-.179.06-.375.046-.543-.038-.17-.084-.298-.233-.357-.412l-.29-.9c-.063-.179-.05-.376.034-.545.085-.17.235-.298.416-.355l4-1.31c.179-.06.374-.044.542.043.167.086.293.237.348.417l.3.9c.06.179.046.375-.038.543-.084.17-.233.298-.412.357z"/>
                <path fill="url(#k6yrr59ibd)" d="M35.04 13.27c-.708-.983-1.58-1.836-2.58-2.52-2.459-1.728-5.58-2.22-8.45-1.33.335 1.137-.158 2.356-1.19 2.94.887-.636 1.187-1.818.71-2.8-.286-.617-.866-1.047-1.54-1.14-.412-.045-.828-.045-1.24 0-.384.068-.776.068-1.16 0-.434-.151-.739-.542-.78-1 .059-.62.491-1.14 1.09-1.31.677-.171 1.392.053 1.85.58.149.281.46.436.774.385.313-.052.56-.298.61-.611.052-.314-.103-.625-.384-.774-.845-.929-2.145-1.294-3.35-.94-1.211.38-2.052 1.481-2.1 2.75.041 1.094.754 2.048 1.79 2.4.564.15 1.153.185 1.73.1.31-.025.62-.025.93 0 .14.02.267.095.35.21-.22.1-.45.2-.68.32-.251.123-.495.26-.73.41l-.14.07-.09.06c-2.656 1.858-4.357 4.792-4.65 8.02.99.071 1.956.33 2.85.76-.965-.324-1.987-.44-3-.34h-.1c-1.597.424-3.145 1.014-4.62 1.76-1.516 1.033-2.236 2.896-1.81 4.68.035.167.081.33.14.49.036.133.083.264.14.39.7 1.58 3 4.65 10.35 4.68 4.8.075 9.464-1.6 13.12-4.71l.15-.15.17-.16c1.038-1.048 1.884-2.27 2.5-3.61-.362-1.085-.955-2.078-1.74-2.91-.88-.899-1.56-1.972-2-3.15.586 1.085 1.39 2.038 2.36 2.8.717.558 1.332 1.234 1.82 2 .134-.426.24-.86.32-1.3.461-2.445-.048-4.974-1.42-7.05zM13.71 25.94c-.73.1-.87-.53-1.46-.71-.59-.18-1.39 1.06-1.69.35-.75-1.79-.23-3.17 1.58-3.32 2.92-.24 2.27 3.56 1.57 3.68zm7.93 3c-1.552.408-3.202-.06-4.31-1.22 0 0 5.12 1.1 7.61-1.81-.45 1.546-1.721 2.714-3.3 3.03zm7.83-9.26c-.074.379-.37.676-.749.75-.379.075-.765-.087-.977-.41-.212-.322-.208-.741.01-1.06.22-.318.609-.472.986-.39.505.11.829.603.73 1.11zm.3-3.23l-4 1.3c-.179.06-.375.046-.543-.038-.17-.084-.298-.233-.357-.412l-.29-.9c-.063-.179-.05-.376.034-.545.085-.17.235-.298.416-.355l4-1.31c.179-.06.374-.044.542.043.167.086.293.237.348.417l.3.9c.06.179.046.375-.038.543-.084.17-.233.298-.412.357z"/>
                <path fill="#FFF" d="M45.73 32.14c-.3.115-.612.196-.93.24-1.753.188-3.499-.417-4.76-1.65-1.53-1.47-2.05-3.7-2.55-5.69-.272-1.187-.728-2.324-1.35-3.37-.488-.766-1.103-1.442-1.82-2-.97-.762-1.774-1.715-2.36-2.8-.952-1.683-1.2-3.675-.69-5.54.49-1.77 2.53-1.72 4-1.15 1.93.77 3 2.79 3.71 4.64.39 1.447.934 2.848 1.62 4.18.769 1.002 1.723 1.847 2.81 2.49 1.686 1.091 3.113 2.538 4.18 4.24 1.32 2.28.56 5.46-1.86 6.41z"/>
                <path fill="url(#d2sei04sxe)" d="M45.73 32.14c-.3.115-.612.196-.93.24-1.753.188-3.499-.417-4.76-1.65-1.53-1.47-2.05-3.7-2.55-5.69-.272-1.187-.728-2.324-1.35-3.37-.488-.766-1.103-1.442-1.82-2-.97-.762-1.774-1.715-2.36-2.8-.952-1.683-1.2-3.675-.69-5.54.49-1.77 2.53-1.72 4-1.15 1.93.77 3 2.79 3.71 4.64.39 1.447.934 2.848 1.62 4.18.769 1.002 1.723 1.847 2.81 2.49 1.686 1.091 3.113 2.538 4.18 4.24 1.32 2.28.56 5.46-1.86 6.41z"/>
                <path fill="#FFF" d="M14.26 44.03L12.72 44.03 13.88 37.43 15.42 37.43zM22.23 43.92L20.53 43.92 21.69 37.33 23.4 37.33zM34.19 43.95L32.67 43.95 33.32 40.23 34.84 40.23zM42.9 40.33L41.38 40.33 42.03 36.61 43.55 36.61zM31.34 38.47L28.07 38.47 28.18 37.85 31.45 37.85z"/>
                <path fill="#FFF" d="M29.5 43.95L27.98 43.95 29.25 36.76 30.77 36.76z"/>
                <path fill="#FFF" d="M28.36 42.74L27.16 43.51 27.08 43.95 29.4 43.95zM31.3 38.75L31.04 40.21 27.35 42.56 27.6 41.13zM11.41 38.5L8.09 38.5 8.2 37.87 11.53 37.87z"/>
                <path fill="#FFF" d="M9.55 44.03L8.01 44.03 9.3 36.72 10.84 36.72z"/>
                <path fill="#FFF" d="M8.39 42.8L7.17 43.57 7.09 44.03 9.45 44.03zM16.87 37.57L11.55 37.57 11.66 36.95 16.98 36.95zM26.49 37.57L18.5 37.57 18.62 36.95 26.6 36.95zM36.36 41.11L31.49 41.11 31.61 40.49 36.47 40.49zM37.04 37.52L32.11 37.52 32.22 36.9 37.16 36.9zM46.72 38.47L38.21 38.47 38.32 37.85 46.83 37.85zM45.77 40.34L38.5 40.34 38.6 39.71 45.88 39.71zM25.69 44.03L17.04 44.03 17.15 43.4 25.8 43.4z"/>
                <path fill="#FFF" d="M32.2 36.98L31.95 38.43 32.37 38.43 33.37 37.25zM37.14 36.98L36.88 38.43 36.45 38.43 35.87 37.25zM33.33 41.06L33.08 42.5 31 43.95 31.25 42.52zM34.55 41.06L34.29 42.5 35.86 43.95 36.11 42.52zM34.44 38.1L33.27 38.1 32.53 38.97 31.84 39.16 31.72 39.84 32.97 39.84zM40.2 43.95L38.79 43.95 39.25 41.34 40.66 41.34zM44.29 43.95L42.88 43.95 43.4 41.03 44.81 41.03z"/>
                <path fill="#FFF" d="M43.35 41.74L39.18 41.74 39.3 41.03 43.48 41.03zM44.29 43.95L38.79 43.95 38.91 43.24 44.42 43.24zM13.1 42.8L11.89 43.57 11.81 44.03 14.16 44.03zM31.87 38.97L32.65 38.97 32.5 39.82 31.72 39.82zM35.9 38.97L36.67 38.97 36.52 39.82 35.75 39.82z"/>
                <path fill="#FFF" d="M36.64 39.16L36.52 39.84 35.28 39.84 34.6 38.46 35.77 38.46 36.02 38.97zM11.38 38.7L11.12 40.18 7.37 42.57 7.63 41.12z"/>
            </g>
        </g>
    </g>
</svg>
